<svg width="44" height="36" viewBox="0 0 44 36" fill="none" xmlns="http://www.w3.org/2000/svg">
<path d="M28.4512 30.9803H15.2852C7.28712 30.9803 0.888672 24.2932 0.888672 16.2182C0.888672 8.01701 7.41017 1.45605 15.2852 1.45605H28.4512C36.4492 1.45605 42.8477 8.14318 42.8477 16.2182C42.8477 24.2932 36.4492 30.9803 28.4512 30.9803Z" stroke="#606060" stroke-miterlimit="10" stroke-linecap="round" stroke-linejoin="round"/>
<path d="M32.2656 30.4757L38.2949 35.144V26.9429" stroke="#606060" stroke-miterlimit="10" stroke-linecap="round" stroke-linejoin="round"/>
<path d="M21.8066 17.9849C22.826 17.9849 23.6523 17.1375 23.6523 16.0923C23.6523 15.047 22.826 14.1997 21.8066 14.1997C20.7873 14.1997 19.9609 15.047 19.9609 16.0923C19.9609 17.1375 20.7873 17.9849 21.8066 17.9849Z" stroke="#606060" stroke-miterlimit="10" stroke-linecap="round" stroke-linejoin="round"/>
<path d="M31.0352 17.9849C32.0545 17.9849 32.8809 17.1375 32.8809 16.0923C32.8809 15.047 32.0545 14.1997 31.0352 14.1997C30.0158 14.1997 29.1895 15.047 29.1895 16.0923C29.1895 17.1375 30.0158 17.9849 31.0352 17.9849Z" stroke="#606060" stroke-miterlimit="10" stroke-linecap="round" stroke-linejoin="round"/>
<path d="M12.5781 17.9849C13.5975 17.9849 14.4238 17.1375 14.4238 16.0923C14.4238 15.047 13.5975 14.1997 12.5781 14.1997C11.5588 14.1997 10.7324 15.047 10.7324 16.0923C10.7324 17.1375 11.5588 17.9849 12.5781 17.9849Z" stroke="#606060" stroke-miterlimit="10" stroke-linecap="round" stroke-linejoin="round"/>
</svg>
